PathFileType	4	(X/Y/Z)	OpenSim_Sub04_CSStiffKnee_Magnet.trc
DataRate	CameraRate	NumFrames	NumMarkers	Units	OrigDataRate	OrigDataStartFrame	OrigNumFrames
100	100	30	8	m	100	1854	7413
Frame#	Time	torso_imu_offset_imu	pelvis_imu_offset_imu	tibia_r_imu_offset_imu	femur_r_imu_offset_imu	tibia_l_imu_offset_imu	femur_l_imu_offset_imu	toes_r_imu_offset_imu	toes_l_imu_offset_imu
				X1	Y1	Z1	X2	Y2	Z2	X3	Y3	Z3	X4	Y4	Z4	X5	Y5	Z5	X6	Y6	Z6	X7	Y7	Z7	X8		Y8	Z8	

1854	18.53000000	0.93653110	0.16992328	-0.10987863	-0.52551342	0.04130823	-0.77660589	-0.53297160	-0.62505338	-0.06363906	-0.76124109	-0.33958498	0.11735826	-0.57449945	0.56074194	0.20332156	-0.37641049	0.23375424	0.46541443	-0.70743652	-0.18769146	-0.29673119	-0.70671509	-0.30367543	-0.28917134
1855	18.54000000	0.93852934	0.17195913	-0.10937239	-0.52792144	0.04481782	-0.77028678	-0.53020251	-0.63143040	-0.06948279	-0.75661389	-0.34555218	0.12060543	-0.59544991	0.54538968	0.19647838	-0.38431623	0.22792412	0.46798465	-0.70278590	-0.19088999	-0.29898336	-0.70252801	-0.29501252	-0.30019497
1856	18.55000000	0.94282342	0.17180089	-0.10469331	-0.52852208	0.04521036	-0.76930771	-0.52430162	-0.62712478	-0.07274133	-0.75349135	-0.35347638	0.12089647	-0.60772578	0.53274377	0.18905421	-0.39250303	0.21967676	0.46237958	-0.70031339	-0.19237240	-0.30269526	-0.69594931	-0.29276010	-0.30703044
1857	18.56000000	0.94163441	0.16828890	-0.10711021	-0.53156805	0.04335436	-0.77113661	-0.52623964	-0.62826231	-0.07562934	-0.75383298	-0.35753694	0.11783567	-0.61798751	0.52166948	0.18779931	-0.39187972	0.21156869	0.46869434	-0.69577572	-0.19508722	-0.30571419	-0.69572067	-0.29280568	-0.31829345
1858	18.57000000	0.93914864	0.17054342	-0.11105104	-0.53087582	0.04565763	-0.76864425	-0.51953462	-0.63548020	-0.08082863	-0.75331248	-0.36488581	0.11627742	-0.62359364	0.51288734	0.18363383	-0.39766450	0.19929714	0.46670493	-0.68925404	-0.19361984	-0.30558789	-0.68990614	-0.29432137	-0.32656526
1859	18.58000000	0.94027140	0.16468557	-0.11023834	-0.52910480	0.04526383	-0.77214055	-0.51267683	-0.63990272	-0.08356766	-0.74548374	-0.36941192	0.11449406	-0.63552556	0.49932549	0.17559585	-0.40283091	0.19004296	0.46088673	-0.69142760	-0.19634310	-0.31188399	-0.68296787	-0.29529809	-0.32493725
1860	18.59000000	0.93826182	0.16494171	-0.10650980	-0.53255760	0.05227193	-0.76644822	-0.51426739	-0.63884459	-0.08362407	-0.74506369	-0.37250764	0.10783363	-0.64382731	0.48817509	0.16973318	-0.40430608	0.18281588	0.46890039	-0.69103996	-0.19512463	-0.31159809	-0.67933252	-0.29528894	-0.33920554
1861	18.60000000	0.93836970	0.16917238	-0.10241349	-0.53584463	0.05912539	-0.76312650	-0.50465830	-0.64514824	-0.08894608	-0.74484715	-0.38250991	0.10235150	-0.65343035	0.47625453	0.16784474	-0.40416840	0.17469237	0.47012800	-0.68653630	-0.20301095	-0.31761977	-0.68193671	-0.29322629	-0.35048395
1862	18.61000000	0.94146562	0.16681864	-0.10631382	-0.53836079	0.05671273	-0.76815251	-0.50112269	-0.64953923	-0.09457071	-0.74068135	-0.38017149	0.09970796	-0.66079663	0.46867898	0.16634524	-0.40899212	0.17047719	0.47584469	-0.68703912	-0.20646266	-0.32170037	-0.67373778	-0.29467465	-0.35862073
1863	18.62000000	0.94091316	0.16651896	-0.10964643	-0.53745102	0.06004699	-0.76249186	-0.49557034	-0.65242975	-0.09857124	-0.74056673	-0.38142141	0.09616041	-0.67123853	0.46096234	0.17270757	-0.40993357	0.16241384	0.47233064	-0.68255515	-0.20963871	-0.32545457	-0.66518604	-0.29934945	-0.37237481
1864	18.63000000	0.93800512	0.17289562	-0.10843565	-0.53876520	0.06458801	-0.76469165	-0.49294207	-0.65902062	-0.10272798	-0.73957595	-0.38401352	0.09144883	-0.67642225	0.45022078	0.17162699	-0.41019464	0.15912221	0.46895800	-0.67913691	-0.21573212	-0.32630408	-0.66662834	-0.29553810	-0.37115734
1865	18.64000000	0.93702516	0.17204284	-0.10411993	-0.54453947	0.06567170	-0.75746177	-0.48374205	-0.66786698	-0.09803510	-0.73589751	-0.38999516	0.08686509	-0.67843405	0.44345931	0.16815180	-0.41811529	0.15725451	0.47060488	-0.68128020	-0.22371522	-0.32976660	-0.66201274	-0.30001200	-0.37235433
1866	18.65000000	0.93842778	0.17247671	-0.11228349	-0.55258236	0.06986436	-0.75144363	-0.47256381	-0.66844255	-0.10568182	-0.73961527	-0.39749838	0.08420045	-0.67832833	0.43594741	0.16978397	-0.41604295	0.15235340	0.46496392	-0.68075216	-0.23009305	-0.33753220	-0.66400994	-0.31349060	-0.37115470
1867	18.66000000	0.93282425	0.17508863	-0.11261899	-0.54271020	0.07000314	-0.75679965	-0.46820269	-0.67351987	-0.11171755	-0.74272553	-0.39322314	0.08119027	-0.67963373	0.43448773	0.17752646	-0.41112872	0.14852867	0.46764575	-0.67744723	-0.22868828	-0.33586690	-0.66032115	-0.32761248	-0.36136522
1868	18.67000000	0.93349534	0.17426910	-0.11006908	-0.54696003	0.06981537	-0.75220367	-0.45584943	-0.68294791	-0.11314769	-0.74215142	-0.39732276	0.08285448	-0.67386039	0.42959168	0.18008145	-0.41792048	0.14244099	0.47351400	-0.68078941	-0.23565971	-0.33982030	-0.66036982	-0.33476073	-0.35485154
1869	18.68000000	0.93374348	0.17567551	-0.11135182	-0.55731675	0.07262088	-0.74876248	-0.45072018	-0.68675836	-0.11500382	-0.74047746	-0.40178863	0.08066990	-0.67271214	0.42938308	0.18737247	-0.42267797	0.13595115	0.47148801	-0.68508726	-0.24376314	-0.33930055	-0.65905433	-0.34305514	-0.35162916
1870	18.69000000	0.93685994	0.17844468	-0.11476436	-0.55515160	0.07384324	-0.74978116	-0.44125018	-0.69315349	-0.11656653	-0.74008985	-0.39900229	0.07974957	-0.67441973	0.42391794	0.19417608	-0.42483453	0.12877157	0.47460954	-0.68574231	-0.25141108	-0.33995281	-0.66032348	-0.35209813	-0.32352434
1871	18.70000000	0.93900078	0.17847573	-0.11322739	-0.55363123	0.07942267	-0.73912780	-0.42752636	-0.70315212	-0.12295476	-0.73814650	-0.39971573	0.08087463	-0.67072709	0.42404845	0.20720442	-0.42221953	0.12597102	0.48188036	-0.69168869	-0.25586228	-0.34044592	-0.66568521	-0.35830508	-0.31704473
1872	18.71000000	0.93539885	0.18134959	-0.11369488	-0.55979672	0.08139900	-0.73969924	-0.41723699	-0.70524329	-0.12840335	-0.74056969	-0.40108573	0.07388594	-0.67089493	0.42898987	0.21986336	-0.42172423	0.11812473	0.48027294	-0.69148251	-0.26029387	-0.33304353	-0.66560166	-0.35445157	-0.32937801
1873	18.72000000	0.93550517	0.18355804	-0.11817619	-0.56522867	0.08472945	-0.74078485	-0.39929550	-0.70967553	-0.13151375	-0.73988617	-0.39920450	0.07376851	-0.66639539	0.43219344	0.23197713	-0.42082098	0.11075495	0.48517992	-0.69673156	-0.27284034	-0.33032107	-0.66776555	-0.34567558	-0.32570385
1874	18.73000000	0.93212574	0.18276702	-0.11814472	-0.56618702	0.08277586	-0.72812640	-0.38521094	-0.71846977	-0.13071214	-0.73696885	-0.39917230	0.06970564	-0.65277861	0.43439788	0.24588628	-0.41304048	0.10611259	0.48311920	-0.70453656	-0.27954807	-0.32215590	-0.66730575	-0.35026652	-0.32646596
1875	18.74000000	0.93166644	0.18442595	-0.12055434	-0.57109256	0.09407028	-0.72340226	-0.37378605	-0.72933015	-0.12668743	-0.74021137	-0.39500480	0.06990814	-0.64558252	0.44338474	0.25300355	-0.41155741	0.10743863	0.49296739	-0.71566816	-0.28734722	-0.30824299	-0.66470587	-0.34948481	-0.33111681
1876	18.75000000	0.93304902	0.18447452	-0.12745235	-0.57184801	0.09840670	-0.72868105	-0.36063926	-0.73250111	-0.12882673	-0.74499404	-0.39137933	0.06870470	-0.63870106	0.45501485	0.25938157	-0.40601427	0.10021487	0.50374082	-0.72751144	-0.29544386	-0.28906357	-0.66201703	-0.35014909	-0.32855698
1877	18.76000000	0.93321559	0.18021843	-0.12950926	-0.57684523	0.09888692	-0.72614126	-0.33931145	-0.74617699	-0.12201143	-0.74797041	-0.38554640	0.06863548	-0.63335782	0.45328052	0.26240488	-0.39908840	0.09939691	0.51275243	-0.73338101	-0.29632197	-0.27100795	-0.66185812	-0.35214698	-0.32521609
1878	18.77000000	0.93162139	0.17825632	-0.13142346	-0.57621207	0.10430304	-0.71969367	-0.32037106	-0.75560512	-0.11355003	-0.75967681	-0.36991986	0.06351926	-0.63148230	0.46157623	0.25966667	-0.39423239	0.09715077	0.52349087	-0.74157478	-0.30610964	-0.24972328	-0.65796671	-0.35615996	-0.32271720
1879	18.78000000	0.93133798	0.17977807	-0.13726674	-0.57814134	0.10447316	-0.71643937	-0.29888510	-0.75923436	-0.10914991	-0.76313198	-0.35625931	0.06552374	-0.62298451	0.46769166	0.26007350	-0.38597108	0.10680912	0.52874887	-0.75490026	-0.31259716	-0.21366633	-0.65949110	-0.35971239	-0.32294119
1880	18.79000000	0.92766618	0.18289449	-0.13669426	-0.58251209	0.11301016	-0.71689189	-0.28245665	-0.77044787	-0.10661312	-0.76652167	-0.34031672	0.06232265	-0.61997686	0.46806991	0.27048780	-0.37946493	0.11753200	0.53709724	-0.76807578	-0.31818790	-0.16495081	-0.65899843	-0.35736311	-0.32669491
1881	18.80000000	0.92924389	0.17978888	-0.13893818	-0.57960186	0.11863454	-0.71188591	-0.26424006	-0.77804319	-0.09786919	-0.77765168	-0.32173258	0.05718465	-0.61694867	0.46886050	0.27462504	-0.37979072	0.12543143	0.52558406	-0.77205170	-0.33451468	-0.11901653	-0.65587794	-0.35578984	-0.32347410
1882	18.81000000	0.92892490	0.18205295	-0.13894890	-0.58253801	0.12106836	-0.71035951	-0.24089882	-0.78540822	-0.08180296	-0.79046421	-0.29975663	0.06257208	-0.60883028	0.48073447	0.27527862	-0.38213520	0.13888860	0.51620276	-0.77582621	-0.34594909	-0.07143398	-0.65862094	-0.36056900	-0.32376028
1883	18.82000000	0.92459802	0.18689338	-0.14150174	-0.58263975	0.12560477	-0.71242084	-0.22077840	-0.79296251	-0.07418899	-0.80013458	-0.27339675	0.05932847	-0.60731200	0.47876701	0.28204065	-0.37929133	0.13709316	0.52030984	-0.77364962	-0.35539377	-0.02391025	-0.65585113	-0.36525652	-0.32132567
